<svg id="discount" xmlns="http://www.w3.org/2000/svg" width="24" height="24" viewBox="0 0 24 24">
  <path id="Path_371" data-name="Path 371" d="M0,0H24V24H0Z" fill="none"/>
  <path id="Path_372" data-name="Path 372" d="M9,15l6-6" fill="none" stroke="#4b1d09" stroke-linecap="round" stroke-linejoin="round" stroke-width="2"/>
  <circle id="Ellipse_69" data-name="Ellipse 69" cx="0.5" cy="0.5" r="0.5" transform="translate(9 9)" fill="#111" stroke="#4b1d09" stroke-linecap="round" stroke-linejoin="round" stroke-width="2"/>
  <circle id="Ellipse_70" data-name="Ellipse 70" cx="0.5" cy="0.5" r="0.5" transform="translate(14 14)" fill="#111" stroke="#4b1d09" stroke-linecap="round" stroke-linejoin="round" stroke-width="2"/>
  <path id="Path_373" data-name="Path 373" d="M5,7.2A2.2,2.2,0,0,1,7.2,5h1a2.2,2.2,0,0,0,1.55-.64l.7-.7a2.2,2.2,0,0,1,3.12,0l.7.7A2.2,2.2,0,0,0,15.82,5h1a2.2,2.2,0,0,1,2.2,2.2v1a2.2,2.2,0,0,0,.64,1.55l.7.7a2.2,2.2,0,0,1,0,3.12l-.7.7a2.2,2.2,0,0,0-.64,1.55v1a2.2,2.2,0,0,1-2.2,2.2h-1a2.2,2.2,0,0,0-1.55.64l-.7.7a2.2,2.2,0,0,1-3.12,0l-.7-.7a2.2,2.2,0,0,0-1.55-.64h-1A2.2,2.2,0,0,1,5,16.82v-1a2.2,2.2,0,0,0-.64-1.55l-.7-.7a2.2,2.2,0,0,1,0-3.12l.7-.7A2.2,2.2,0,0,0,5,8.2v-1" fill="none" stroke="#4b1d09" stroke-linecap="round" stroke-linejoin="round" stroke-width="2"/>
</svg>
