<svg xmlns="http://www.w3.org/2000/svg" width="64" height="64" viewBox="0 0 64 64">
  <g id="Group_408" data-name="Group 408" transform="translate(8765 1536)">
    <g id="Rectangle_1195" data-name="Rectangle 1195" transform="translate(-8765 -1536)" fill="#ddb671" stroke="#ddb671" stroke-width="1">
      <rect width="64" height="64" rx="8" stroke="none"/>
      <rect x="0.5" y="0.5" width="63" height="63" rx="7.5" fill="none"/>
    </g>
    <g id="Group_390" data-name="Group 390" transform="translate(465.218 605.44)">
      <path id="Path_424" data-name="Path 424" d="M-1013.25-291.921h42.106V-300.4l-5.906-11.146h-30.388l-5.811,10.86Z" transform="translate(-8205.968 -1803.226)" fill="none" stroke="#4a1c08" stroke-linecap="round" stroke-linejoin="round" stroke-miterlimit="10" stroke-width="2"/>
      <line id="Line_94" data-name="Line 94" y1="2.072" transform="translate(-9178.279 -2095.147)" fill="none" stroke="#4a1c08" stroke-linecap="round" stroke-miterlimit="10" stroke-width="2"/>
      <line id="Line_95" data-name="Line 95" y1="2.072" transform="translate(-9217.916 -2095.147)" fill="none" stroke="#4a1c08" stroke-linecap="round" stroke-miterlimit="10" stroke-width="2"/>
      <path id="Path_425" data-name="Path 425" d="M-966.678-328.876l-2.048-3.382v-6.28a1.007,1.007,0,0,0-1.008-1.008h-22.134a1.007,1.007,0,0,0-1.007,1.008v6.232l-2,3.429" transform="translate(-8217.341 -1785.895)" fill="none" stroke="#4a1c08" stroke-linecap="round" stroke-linejoin="round" stroke-miterlimit="10" stroke-width="2"/>
      <line id="Line_96" data-name="Line 96" x1="1.6" transform="translate(-9210.215 -2118.153)" fill="none" stroke="#4a1c08" stroke-linecap="round" stroke-miterlimit="10" stroke-width="2"/>
      <line id="Line_97" data-name="Line 97" x1="1.6" transform="translate(-9187.679 -2118.153)" fill="none" stroke="#4a1c08" stroke-linecap="round" stroke-miterlimit="10" stroke-width="2"/>
      <rect id="Rectangle_1183" data-name="Rectangle 1183" width="10.161" height="6.732" rx="2.39" transform="translate(-9208.615 -2121.503)" fill="none" stroke="#4a1c08" stroke-linecap="round" stroke-linejoin="round" stroke-miterlimit="10" stroke-width="2"/>
      <rect id="Rectangle_1184" data-name="Rectangle 1184" width="10.161" height="6.732" rx="2.39" transform="translate(-9197.78 -2121.503)" fill="none" stroke="#4a1c08" stroke-linecap="round" stroke-linejoin="round" stroke-miterlimit="10" stroke-width="2"/>
      <line id="Line_98" data-name="Line 98" x2="10.451" transform="translate(-9210.648 -2110.127)" fill="none" stroke="#4a1c08" stroke-linecap="round" stroke-miterlimit="10" stroke-width="2"/>
      <line id="Line_99" data-name="Line 99" x2="10.451" transform="translate(-9196.042 -2106.88)" fill="none" stroke="#4a1c08" stroke-linecap="round" stroke-miterlimit="10" stroke-width="2"/>
      <line id="Line_100" data-name="Line 100" x2="10.451" transform="translate(-9203.68 -2099.872)" fill="none" stroke="#4a1c08" stroke-linecap="round" stroke-miterlimit="10" stroke-width="2"/>
    </g>
  </g>
</svg>
