<svg xmlns="http://www.w3.org/2000/svg" width="64" height="64" viewBox="0 0 64 64">
  <g id="Group_409" data-name="Group 409" transform="translate(8936 1536)">
    <g id="Rectangle_1195" data-name="Rectangle 1195" transform="translate(-8936 -1536)" fill="#ddb671" stroke="#ddb671" stroke-width="1">
      <rect width="64" height="64" rx="8" stroke="none"/>
      <rect x="0.5" y="0.5" width="63" height="63" rx="7.5" fill="none"/>
    </g>
    <g id="Group_389" data-name="Group 389" transform="translate(-8920 -1523)">
      <line id="Line_91" data-name="Line 91" x2="9.431" transform="translate(18.503 38.009)" fill="none" stroke="#4a1c08" stroke-linecap="round" stroke-miterlimit="10" stroke-width="2"/>
      <line id="Line_92" data-name="Line 92" y2="21.624" transform="translate(23.218 16.385)" fill="none" stroke="#4a1c08" stroke-linecap="round" stroke-miterlimit="10" stroke-width="2"/>
      <path id="Path_423" data-name="Path 423" d="M-1128.35-353.319h5.859l2.858,16.385h-17.338l3.048-16.385Z" transform="translate(1151.568 353.319)" fill="none" stroke="#4a1c08" stroke-linecap="round" stroke-linejoin="round" stroke-miterlimit="10" stroke-width="2"/>
      <line id="Line_93" data-name="Line 93" y2="5.684" transform="translate(27.934 16.385)" fill="none" stroke="#4a1c08" stroke-linecap="round" stroke-miterlimit="10" stroke-width="2"/>
      <ellipse id="Ellipse_83" data-name="Ellipse 83" cx="0.5" cy="0.5" rx="0.5" ry="0.5" transform="translate(27.434 22.053)" fill="none" stroke="#4a1c08" stroke-linecap="round" stroke-linejoin="round" stroke-miterlimit="10" stroke-width="2"/>
      <path id="Path_427" data-name="Path 427" d="M-1175.279-295.644h15.8s-.742-7.716-7.9-7.716S-1175.279-295.644-1175.279-295.644Z" transform="translate(1175.279 322.397)" fill="none" stroke="#4a1c08" stroke-linecap="round" stroke-linejoin="round" stroke-miterlimit="10" stroke-width="2"/>
      <line id="Line_103" data-name="Line 103" y2="9.2" transform="translate(7.901 8.056)" fill="none" stroke="#4a1c08" stroke-linecap="round" stroke-miterlimit="10" stroke-width="2"/>
      <path id="Path_428" data-name="Path 428" d="M-1157.95-306.134v-.556a1.3,1.3,0,0,1,1.3-1.3,1.293,1.293,0,0,1,.918.381,1.306,1.306,0,0,1,.377.918v.556" transform="translate(1164.553 325.262)" fill="none" stroke="#4a1c08" stroke-linecap="round" stroke-linejoin="round" stroke-miterlimit="10" stroke-width="2"/>
      <path id="Path_429" data-name="Path 429" d="M-1155.738-283.11v.686a1.908,1.908,0,0,1-1.909,1.909,1.911,1.911,0,0,1-1.913-1.909v-.686" transform="translate(1165.55 309.863)" fill="none" stroke="#4a1c08" stroke-linecap="round" stroke-linejoin="round" stroke-miterlimit="10" stroke-width="2"/>
    </g>
  </g>
</svg>
