<svg xmlns="http://www.w3.org/2000/svg" width="64" height="64" viewBox="0 0 64 64">
  <g id="Group_410" data-name="Group 410" transform="translate(9449 1536)">
    <g id="Rectangle_1195" data-name="Rectangle 1195" transform="translate(-9449 -1536)" fill="#ddb671" stroke="#ddb671" stroke-width="1">
      <rect width="64" height="64" rx="8" stroke="none"/>
      <rect x="0.5" y="0.5" width="63" height="63" rx="7.5" fill="none"/>
    </g>
    <g id="Group_384" data-name="Group 384" transform="translate(-9436 -1520)">
      <path id="Path_426" data-name="Path 426" d="M-2065.679-318.016l-7.268-14.242v-6.28a1.007,1.007,0,0,0-1.008-1.008h-22.134a1.007,1.007,0,0,0-1.008,1.008v6.232l-7.315,14.289" transform="translate(2104.411 339.545)" fill="none" stroke="#4a1c08" stroke-linecap="round" stroke-linejoin="round" stroke-miterlimit="10" stroke-width="2"/>
      <line id="Line_101" data-name="Line 101" x1="1.6" transform="translate(7.316 7.287)" fill="none" stroke="#4a1c08" stroke-linecap="round" stroke-miterlimit="10" stroke-width="2"/>
      <line id="Line_102" data-name="Line 102" x1="1.6" transform="translate(29.852 7.287)" fill="none" stroke="#4a1c08" stroke-linecap="round" stroke-miterlimit="10" stroke-width="2"/>
      <rect id="Rectangle_1185" data-name="Rectangle 1185" width="10.161" height="6.732" rx="2.39" transform="translate(8.915 3.937)" fill="none" stroke="#4a1c08" stroke-linecap="round" stroke-linejoin="round" stroke-miterlimit="10" stroke-width="2"/>
      <rect id="Rectangle_1186" data-name="Rectangle 1186" width="10.161" height="6.732" rx="2.39" transform="translate(19.751 3.937)" fill="none" stroke="#4a1c08" stroke-linecap="round" stroke-linejoin="round" stroke-miterlimit="10" stroke-width="2"/>
      <line id="Line_104" data-name="Line 104" x2="38.732" transform="translate(0 21.529)" fill="none" stroke="#4a1c08" stroke-linecap="round" stroke-miterlimit="10" stroke-width="2"/>
      <rect id="Rectangle_1187" data-name="Rectangle 1187" width="38.732" height="8.764" transform="translate(0 21.529)" fill="none" stroke="#4a1c08" stroke-linecap="round" stroke-linejoin="round" stroke-miterlimit="10" stroke-width="2"/>
      <line id="Line_105" data-name="Line 105" y1="2.072" transform="translate(36.5 30.234)" fill="none" stroke="#4a1c08" stroke-linecap="round" stroke-miterlimit="10" stroke-width="2"/>
      <line id="Line_106" data-name="Line 106" y1="2.072" transform="translate(2.126 30.293)" fill="none" stroke="#4a1c08" stroke-linecap="round" stroke-miterlimit="10" stroke-width="2"/>
    </g>
  </g>
</svg>
