<svg xmlns="http://www.w3.org/2000/svg" width="64" height="64" viewBox="0 0 64 64">
  <g id="Group_411" data-name="Group 411" transform="translate(9620 1536)">
    <g id="Rectangle_1195" data-name="Rectangle 1195" transform="translate(-9620 -1536)" fill="#ddb671" stroke="#ddb671" stroke-width="1">
      <rect width="64" height="64" rx="8" stroke="none"/>
      <rect x="0.5" y="0.5" width="63" height="63" rx="7.5" fill="none"/>
    </g>
    <g id="Group_386" data-name="Group 386" transform="translate(-9613 -1519)">
      <path id="Path_413" data-name="Path 413" d="M-1720.662-340.235l2.135,17.732-.771,11.624" transform="translate(1720.663 340.235)" fill="none" stroke="#4a1c08" stroke-linecap="round" stroke-linejoin="round" stroke-miterlimit="10" stroke-width="2"/>
      <line id="Line_66" data-name="Line 66" x2="10.956" transform="translate(2.135 17.732)" fill="none" stroke="#4a1c08" stroke-linecap="round" stroke-miterlimit="10" stroke-width="2"/>
      <path id="Path_414" data-name="Path 414" d="M-1688.445-278.778c0-.742-.8-11.624-.8-11.624" transform="translate(1700.425 308.134)" fill="none" stroke="#4a1c08" stroke-linecap="round" stroke-miterlimit="10" stroke-width="2"/>
      <path id="Path_415" data-name="Path 415" d="M-1708.024-319.981s.267-3.054-2.224-3.054h-5.248l-1.245-11.95a1.558,1.558,0,0,0-1.482-1.334h-1.968" transform="translate(1720.359 337.712)" fill="none" stroke="#4a1c08" stroke-linecap="round" stroke-linejoin="round" stroke-miterlimit="10" stroke-width="2"/>
      <path id="Path_416" data-name="Path 416" d="M-1585.172-340.235l-2.135,17.732.771,11.624" transform="translate(1634.758 340.235)" fill="none" stroke="#4a1c08" stroke-linecap="round" stroke-linejoin="round" stroke-miterlimit="10" stroke-width="2"/>
      <line id="Line_67" data-name="Line 67" x1="10.956" transform="translate(36.494 17.732)" fill="none" stroke="#4a1c08" stroke-linecap="round" stroke-miterlimit="10" stroke-width="2"/>
      <path id="Path_417" data-name="Path 417" d="M-1614.974-278.778c0-.742.8-11.624.8-11.624" transform="translate(1652.58 308.134)" fill="none" stroke="#4a1c08" stroke-linecap="round" stroke-miterlimit="10" stroke-width="2"/>
      <path id="Path_418" data-name="Path 418" d="M-1615.989-319.981s-.267-3.054,2.224-3.054h5.248l1.245-11.95a1.558,1.558,0,0,1,1.483-1.334h1.967" transform="translate(1653.24 337.712)" fill="none" stroke="#4a1c08" stroke-linecap="round" stroke-linejoin="round" stroke-miterlimit="10" stroke-width="2"/>
      <line id="Line_68" data-name="Line 68" y1="20.341" transform="translate(17.317 9.014)" fill="none" stroke="#4a1c08" stroke-linecap="round" stroke-miterlimit="10" stroke-width="2"/>
      <line id="Line_69" data-name="Line 69" y1="20.341" transform="translate(31.312 9.014)" fill="none" stroke="#4a1c08" stroke-linecap="round" stroke-miterlimit="10" stroke-width="2"/>
      <line id="Line_70" data-name="Line 70" x2="20.163" transform="translate(14.055 9.014)" fill="none" stroke="#4a1c08" stroke-linecap="round" stroke-miterlimit="10" stroke-width="2"/>
    </g>
  </g>
</svg>
