<svg xmlns="http://www.w3.org/2000/svg" width="248.466" height="40" viewBox="0 0 248.466 40">
  <g id="Group_296" data-name="Group 296" transform="translate(-86 -20)">
    <g id="Group_285" data-name="Group 285" transform="translate(9927 10065)">
      <path id="Path_350" data-name="Path 350" d="M5695.022-3779.847a19.993,19.993,0,0,1-20,19.989,19.991,19.991,0,0,1-20-19.989,20,20,0,0,1,20-20.011A20.007,20.007,0,0,1,5695.022-3779.847Z" transform="translate(-15496.022 -6245.142)" fill="#4b1d09"/>
      <g id="Group_284" data-name="Group 284" transform="translate(-9836 -10039)">
        <g id="Group_57" data-name="Group 57" transform="translate(0 10.621)">
          <path id="Path_48" data-name="Path 48" d="M5696.91-3234.259c-.364-2.093-4.562-3.142-9.385-2.343s-8.43,3.144-8.079,5.244,4.564,3.143,9.389,2.339S5697.271-3232.164,5696.91-3234.259Zm-8.1,3.7c-3.736.623-7-.2-7.273-1.86-.292-1.639,2.51-3.477,6.245-4.1s7,.206,7.282,1.855S5692.554-3231.175,5688.815-3230.555Z" transform="translate(-5679.423 3236.87)" fill="#e6c281"/>
        </g>
        <g id="Group_58" data-name="Group 58" transform="translate(14.288 12.207)">
          <path id="Path_49" data-name="Path 49" d="M6339.809-3190.716c-1.756,1.236-.874,5.4,1.982,9.3s6.588,6.05,8.35,4.813.871-5.406-1.977-9.305S6341.573-3191.957,6339.809-3190.716Zm6.951,5.494c2.209,3.021,2.885,6.269,1.5,7.244s-4.3-.691-6.5-3.711-2.885-6.255-1.506-7.23S6344.548-3188.232,6346.76-3185.222Z" transform="translate(-6338.906 3191.067)" fill="#e6c281"/>
        </g>
        <g id="Group_59" data-name="Group 59" transform="translate(12.708)">
          <path id="Path_50" data-name="Path 50" d="M6267.384-3711.223c1.962.918,5.246-1.86,7.342-6.19s2.208-8.586.25-9.5-5.24,1.864-7.333,6.2S6265.431-3712.122,6267.384-3711.223Zm1.553-8.62c1.628-3.359,4.189-5.509,5.729-4.792s1.463,4.016-.161,7.381-4.191,5.5-5.731,4.79S6267.313-3716.488,6268.937-3719.843Z" transform="translate(-6265.991 3727.086)" fill="#e6c281"/>
        </g>
      </g>
    </g>
    <g id="Group_283" data-name="Group 283" transform="translate(9941 10192.539)">
      <g id="Group_278" data-name="Group 278" transform="translate(-9729.428 -10162.869)">
        <g id="Group_32" data-name="Group 32" transform="translate(0 0)">
          <path id="Path_26" data-name="Path 26" d="M7323.631-2975.449a10.044,10.044,0,0,1,4.676,1.1h0a9.606,9.606,0,0,1,3.526,3.058h0l.25.353-1.909,1.354-.257-.343a7.5,7.5,0,0,0-1.646-1.659h0a8.744,8.744,0,0,0-2.187-1.135h0a8.4,8.4,0,0,0-2.453-.36h0a7.684,7.684,0,0,0-3.89,1.034h0a7.347,7.347,0,0,0-2.808,2.846h0a7.512,7.512,0,0,0-1.052,3.884h0a7.447,7.447,0,0,0,1.052,3.895h0a7.373,7.373,0,0,0,2.825,2.845h0a7.8,7.8,0,0,0,3.872,1.016h0a7.654,7.654,0,0,0,4.648-1.5h0a7.554,7.554,0,0,0,2.579-3.356h-7.942l1.558-2.37h9.309l-.045.468a9.822,9.822,0,0,1-1.634,4.645h0a10,10,0,0,1-3.6,3.31h0a10.113,10.113,0,0,1-4.876,1.195h0a9.862,9.862,0,0,1-5.092-1.354h0a10.458,10.458,0,0,1-3.686-3.686h0a10.134,10.134,0,0,1-1.367-5.1h0a9.9,9.9,0,0,1,.79-3.913h0a10.019,10.019,0,0,1,2.2-3.292h0a9.789,9.789,0,0,1,3.258-2.177h0a10.546,10.546,0,0,1,3.9-.753h0" transform="translate(-7313.487 2975.449)" fill="#4b1d09"/>
        </g>
        <g id="Group_33" data-name="Group 33" transform="translate(21.125 3.442)">
          <path id="Path_27" data-name="Path 27" d="M7858.585-2870.157v-12.088h2.384v12.088Zm0-13.985v-2.505h2.384v2.505Z" transform="translate(-7858.585 2886.647)" fill="#4b1d09"/>
        </g>
        <g id="Group_34" data-name="Group 34" transform="translate(24.4 7.255)">
          <path id="Path_28" data-name="Path 28" d="M7953.761-2776.914a6.063,6.063,0,0,1-4.307,1.655h0a6.033,6.033,0,0,1-4.488-1.85h0a6.24,6.24,0,0,1-1.881-4.5h0a6.069,6.069,0,0,1,1.9-4.513h0a6.093,6.093,0,0,1,4.471-1.862h0a6.119,6.119,0,0,1,4.281,1.686h0l2.083-1.94v13.224l-2.058-1.9Zm-4.307-8.676a3.818,3.818,0,0,0-2.829,1.149h0a3.779,3.779,0,0,0-1.163,2.83h0a3.864,3.864,0,0,0,1.163,2.845h0a3.853,3.853,0,0,0,2.829,1.15h0a3.9,3.9,0,0,0,2.831-1.166h0a3.862,3.862,0,0,0,1.169-2.83h0a3.951,3.951,0,0,0-1.169-2.83h0a3.91,3.91,0,0,0-2.831-1.149h0" transform="translate(-7943.085 2788.241)" fill="#4b1d09"/>
        </g>
      </g>
      <g id="Group_279" data-name="Group 279" transform="translate(-9688.868 -10162.473)">
        <g id="Group_36" data-name="Group 36" transform="translate(0 0)">
          <path id="Path_29" data-name="Path 29" d="M8372.145-2946.281l.358.634h-2.7l-5.906-10.831-1.476,2.174v8.657h-2.389v-19.533h2.389v6.538l4.428-6.538h2.85l-4.32,6.421,6.762,12.478m-1.816-.224h0" transform="translate(-8360.037 2965.181)" fill="#4b1d09"/>
        </g>
        <g id="Group_37" data-name="Group 37" transform="translate(13.058 0)">
          <path id="Path_30" data-name="Path 30" d="M8704.4-2945.647v-7.5a2.383,2.383,0,0,0-.729-1.816h0a2.507,2.507,0,0,0-1.793-.7h0a2.386,2.386,0,0,0-1.781.738h0a2.423,2.423,0,0,0-.756,1.773h0v7.5h-2.374v-19.533h2.374v7.825a4.754,4.754,0,0,1,2.537-.684h0a4.777,4.777,0,0,1,3.5,1.415h0a4.781,4.781,0,0,1,1.414,3.48h0v7.5Zm.879-.858h0" transform="translate(-8696.971 2965.181)" fill="#4b1d09"/>
        </g>
        <g id="Group_38" data-name="Group 38" transform="translate(23.759 1.083)">
          <path id="Path_31" data-name="Path 31" d="M8983.777-2920.109a6.3,6.3,0,0,1-4.3,1.669h0a6.19,6.19,0,0,1-4.479-1.891h0a6.136,6.136,0,0,1-1.9-4.48h0a6.172,6.172,0,0,1,1.9-4.535h0a6.224,6.224,0,0,1,4.479-1.833h0a6.168,6.168,0,0,1,4.289,1.657h0l2.085-1.927v13.225l-2.07-1.885Zm-.874-8.143h0m-3.43-.542a3.867,3.867,0,0,0-2.833,1.132h0a3.806,3.806,0,0,0-1.164,2.852h0a3.764,3.764,0,0,0,1.164,2.835h0a3.775,3.775,0,0,0,2.833,1.137h0a3.758,3.758,0,0,0,2.822-1.15h0a3.78,3.78,0,0,0,1.152-2.823h0a3.7,3.7,0,0,0-1.164-2.823h0a3.756,3.756,0,0,0-2.811-1.161h0m-4.2-3.7-.215-.344,7.148-4.4,1.286,2.345-7.671,3.38-.549-.984h0" transform="translate(-8973.09 2937.236)" fill="#4b1d09"/>
        </g>
        <g id="Group_39" data-name="Group 39" transform="translate(37.802 6.967)">
          <path id="Path_32" data-name="Path 32" d="M9335.876-2772.858h-.437v-12.567l1.707,1.36a4.6,4.6,0,0,1,3.207-1.186h0a4.766,4.766,0,0,1,3.5,1.415h0a4.722,4.722,0,0,1,1.41,3.48h0v7.5h-2.384v-7.5a2.332,2.332,0,0,0-.726-1.816h0a2.521,2.521,0,0,0-1.8-.695h0a2.363,2.363,0,0,0-1.775.737h0a2.312,2.312,0,0,0-.749,1.773h0v7.5h-1.953" transform="translate(-9335.439 2785.425)" fill="#4b1d09"/>
        </g>
        <g id="Group_40" data-name="Group 40" transform="translate(48.924 0)">
          <path id="Path_33" data-name="Path 33" d="M9629.886-2945.647v-7.5h0a2.358,2.358,0,0,0-.746-1.816h0a2.519,2.519,0,0,0-1.8-.7h0a2.425,2.425,0,0,0-1.792.738h0a2.452,2.452,0,0,0-.738,1.773h0v7.5h-2.384v-19.533h2.384v7.825a4.74,4.74,0,0,1,2.53-.684h0a4.752,4.752,0,0,1,3.492,1.415h0a4.662,4.662,0,0,1,1.415,3.48h0v7.5Z" transform="translate(-9622.427 2965.181)" fill="#4b1d09"/>
        </g>
      </g>
      <g id="Group_282" data-name="Group 282" transform="translate(-9804.992 -10164.141)">
        <g id="Group_42" data-name="Group 42" transform="translate(0 0)">
          <path id="Path_34" data-name="Path 34" d="M7350.932-3607.15v12.088h-2.38v-21.119l7.755,13.661v-12.1h2.369v21.116l-7.744-13.643Z" transform="translate(-7348.552 3616.181)" fill="#4b1d09"/>
        </g>
        <g id="Group_43" data-name="Group 43" transform="translate(11.012 3.814)">
          <path id="Path_35" data-name="Path 35" d="M7639.068-3512.892a6.166,6.166,0,0,1,4.521,1.863h0a6.247,6.247,0,0,1,1.858,4.512h0a6.32,6.32,0,0,1-1.858,4.5h0a6.111,6.111,0,0,1-4.5,1.85h-.021a6,6,0,0,1-4.473-1.85h0a6.225,6.225,0,0,1-1.895-4.5h0a6.143,6.143,0,0,1,1.895-4.512h0a6.145,6.145,0,0,1,4.473-1.863h0m3.895,2.494h0m-3.895-.1a3.854,3.854,0,0,0-2.833,1.149h0a3.8,3.8,0,0,0-1.152,2.829h0a3.87,3.87,0,0,0,1.152,2.845h0a3.884,3.884,0,0,0,2.833,1.15h0a3.863,3.863,0,0,0,2.826-1.166h0a3.761,3.761,0,0,0,1.168-2.83h0a3.793,3.793,0,0,0-1.168-2.815h0a3.84,3.84,0,0,0-2.826-1.163h0m.031-4.9-4.287,2.17v-2.37l4.287-2.184,4.226,2.193v2.387l-4.226-2.2Z" transform="translate(-7632.701 3517.776)" fill="#4b1d09"/>
        </g>
        <g id="Group_44" data-name="Group 44" transform="translate(24.638 4.629)">
          <path id="Path_36" data-name="Path 36" d="M7984.272-3480.238v-12.088h2.377v12.088Zm0-13.985v-2.505h2.377v2.505Z" transform="translate(-7984.272 3496.728)" fill="#4b1d09"/>
        </g>
        <g id="Group_45" data-name="Group 45" transform="translate(16.573 22.461)">
          <path id="Path_37" data-name="Path 37" d="M7776.2-3034.245v-2.37h2.389v2.37Z" transform="translate(-7776.195 3036.615)" fill="#4b1d09"/>
        </g>
      </g>
      <g id="Group_281" data-name="Group 281" transform="translate(-9774.211 -10165.539)">
        <g id="Group_47" data-name="Group 47" transform="translate(0 2.956)">
          <path id="Path_38" data-name="Path 38" d="M8146.492-3556.429v-17.166H8142.8v-2.4h9.776v2.4h-3.7v17.166Z" transform="translate(-8142.801 3575.991)" fill="#4b1d09"/>
        </g>
        <g id="Group_48" data-name="Group 48" transform="translate(10.68 2.956)">
          <path id="Path_39" data-name="Path 39" d="M8425.817-3556.429v-7.5a2.393,2.393,0,0,0-.732-1.816h0a2.426,2.426,0,0,0-1.806-.694h0a2.421,2.421,0,0,0-1.792.737h0a2.439,2.439,0,0,0-.732,1.773h0v7.5h-2.368v-19.562h2.368v7.84a4.775,4.775,0,0,1,2.524-.7h0a4.7,4.7,0,0,1,3.5,1.444h0a4.826,4.826,0,0,1,1.428,3.48h0v7.5Z" transform="translate(-8418.387 3575.991)" fill="#4b1d09"/>
        </g>
        <g id="Group_49" data-name="Group 49" transform="translate(21.368 5.212)">
          <path id="Path_40" data-name="Path 40" d="M8704.83-3501.82a6.124,6.124,0,0,1-4.293,1.682h0a6.18,6.18,0,0,1-4.484-1.877h0a6.22,6.22,0,0,1-1.9-4.5h0a6.162,6.162,0,0,1,1.9-4.512h0a6.192,6.192,0,0,1,4.484-1.863h0a6.292,6.292,0,0,1,4.293,1.687h0l2.078-1.941v13.224l-2.078-1.9Zm-4.293-8.658a3.812,3.812,0,0,0-2.841,1.132h0a3.784,3.784,0,0,0-1.145,2.829h0a3.852,3.852,0,0,0,1.145,2.845h0a3.889,3.889,0,0,0,2.841,1.15h0a3.883,3.883,0,0,0,2.824-1.166h0a3.745,3.745,0,0,0,1.153-2.83h0a3.776,3.776,0,0,0-1.153-2.815h0a3.776,3.776,0,0,0-2.824-1.146h0m4.854,3.961h0m-4.74-8.876-4.276,2.17v-2.36l4.276-2.193,4.22,2.193v2.387l-4.22-2.2Zm3.8,1.453h0" transform="translate(-8694.154 3517.776)" fill="#4b1d09"/>
        </g>
        <g id="Group_50" data-name="Group 50" transform="translate(35.007 6.255)">
          <path id="Path_41" data-name="Path 41" d="M9048.1-3474.612v-9.721h-2.024v-2.368h2.024v-3.008l2.386-1.167v4.175h2v2.368h-2v9.721Z" transform="translate(-9046.079 3490.875)" fill="#4b1d09"/>
        </g>
        <path id="Path_42" data-name="Path 42" d="M8941.914-3652.264l1.4,2.281-7.435,3.843-.824-1.3Z" transform="translate(-8904.35 3652.264)" fill="#4b1d09"/>
      </g>
      <g id="Group_280" data-name="Group 280" transform="translate(-9629.195 -10148.992)">
        <g id="Group_52" data-name="Group 52" transform="translate(0 5.064)">
          <path id="Path_43" data-name="Path 43" d="M9899.744-2520.407v-1.184h1.188v1.184Z" transform="translate(-9899.744 2521.592)" fill="#4b1d09"/>
        </g>
        <g id="Group_53" data-name="Group 53" transform="translate(1.636 0.079)">
          <path id="Path_44" data-name="Path 44" d="M9990.223-2779.139l.152.165-.928.738-.134-.152a1.926,1.926,0,0,0-1.519-.716h0a1.947,1.947,0,0,0-1.408.577h0a1.9,1.9,0,0,0-.57,1.411h0a1.87,1.87,0,0,0,.57,1.4h0a1.932,1.932,0,0,0,1.408.584h0a1.875,1.875,0,0,0,1.476-.664h0l.131-.15.947.723-.143.173a3.323,3.323,0,0,1-1.081.817h0a3.2,3.2,0,0,1-1.33.275h-.012a3.046,3.046,0,0,1-2.217-.934h0a3,3,0,0,1-.934-2.227h0a3,3,0,0,1,.934-2.24h0a3.048,3.048,0,0,1,2.229-.921h0a3.172,3.172,0,0,1,1.365.284h0a3.058,3.058,0,0,1,1.063.855h0" transform="translate(-9984.633 2780.278)" fill="#4b1d09"/>
        </g>
        <g id="Group_54" data-name="Group 54" transform="translate(7.52 0.079)">
          <path id="Path_45" data-name="Path 45" d="M10293.068-2780.278a3.022,3.022,0,0,1,2.236.921h0a3,3,0,0,1,.932,2.24h0a3.026,3.026,0,0,1-.92,2.227h0a3.061,3.061,0,0,1-2.241.934h-.007a2.951,2.951,0,0,1-2.229-.934h0a3.032,3.032,0,0,1-.937-2.227h0a3.025,3.025,0,0,1,.939-2.24h0a3.037,3.037,0,0,1,2.227-.921h0m0,1.173a1.953,1.953,0,0,0-1.407.577h0a1.882,1.882,0,0,0-.582,1.411h0a1.855,1.855,0,0,0,.582,1.4h0a1.937,1.937,0,0,0,1.407.584h0a1.973,1.973,0,0,0,1.405-.584h0a1.889,1.889,0,0,0,.579-1.4h0a1.955,1.955,0,0,0-.579-1.411h0a1.989,1.989,0,0,0-1.405-.577h0" transform="translate(-10289.902 2780.278)" fill="#4b1d09"/>
        </g>
        <g id="Group_55" data-name="Group 55" transform="translate(14.294 0)">
          <path id="Path_46" data-name="Path 46" d="M10648.568-2778.109v-3.78a1.181,1.181,0,0,0-.354-.89h0a1.34,1.34,0,0,0-.851-.327h0a1.294,1.294,0,0,0-.852.345h0a1.129,1.129,0,0,0-.353.872h0v3.78h-1.182v-3.78a1.2,1.2,0,0,0-.354-.89h0a1.34,1.34,0,0,0-.854-.327h0a1.29,1.29,0,0,0-.843.345h0a1.1,1.1,0,0,0-.361.872h0v3.78h-1.182v-6.249l.829.65a2.288,2.288,0,0,1,1.557-.571h0a2.4,2.4,0,0,1,1.147.278h0a2.444,2.444,0,0,1,.659.519h0a2.247,2.247,0,0,1,1.787-.8h0a2.21,2.21,0,0,1,.96.2h0a2.257,2.257,0,0,1,.726.5h0a2.417,2.417,0,0,1,.5.727h0a2.232,2.232,0,0,1,.2.968h0v3.78Z" transform="translate(-10641.385 2784.358)" fill="#4b1d09"/>
        </g>
      </g>
    </g>
  </g>
</svg>
